<svg width="618" height="213" viewBox="0 0 618 213" fill="none" xmlns="http://www.w3.org/2000/svg">
<path fill-rule="evenodd" clip-rule="evenodd" d="M207.58 71.5439H210.171C218.317 71.5439 224.92 78.1471 224.92 86.2925V125.622C224.92 133.768 218.317 140.371 210.171 140.371H208.023C194.326 179.06 157.785 206.738 114.858 206.738C71.9321 206.738 35.3907 179.06 21.6944 140.371H19.6685C11.5231 140.371 4.91992 133.768 4.91992 125.622V86.2925C4.91992 78.1471 11.5231 71.5439 19.6685 71.5439H22.1371C36.1652 33.4965 72.3866 6.40234 114.858 6.40234C157.33 6.40234 193.552 33.4965 207.58 71.5439Z" fill="white"/>
<path fill-rule="evenodd" clip-rule="evenodd" d="M213.34 140.029C212.32 140.253 211.259 140.37 210.171 140.37H208.023C194.327 179.061 157.785 206.739 114.858 206.739C71.9316 206.739 35.3899 179.061 21.6939 140.37H19.6686C18.5335 140.37 17.4282 140.242 16.3667 139.999C30.1616 181.623 69.0113 211.659 114.858 211.659C160.695 211.659 199.537 181.637 213.34 140.029ZM212.893 71.7942C212.011 71.6297 211.101 71.5436 210.171 71.5436H207.579C193.551 33.4969 157.33 6.4034 114.858 6.4034C72.3871 6.4034 36.1661 33.4969 22.1377 71.5436H19.6686C18.6924 71.5436 17.7382 71.6385 16.815 71.8194C30.9882 30.8838 69.4986 1.4834 114.858 1.4834C160.209 1.4834 198.713 30.8717 212.893 71.7942Z" fill="black"/>
<path fill-rule="evenodd" clip-rule="evenodd" d="M114.875 206.738L113.092 211.32L114.734 211.959L116.408 211.409L114.875 206.738ZM64.0333 140.37C76.5116 191.808 114.875 206.738 114.875 206.738C113.092 211.32 113.089 211.318 113.085 211.317L113.078 211.314L113.06 211.307L113.008 211.287C112.968 211.27 112.914 211.249 112.849 211.222C112.717 211.168 112.537 211.092 112.31 210.993C111.857 210.795 111.219 210.505 110.422 210.113C108.83 209.332 106.6 208.144 103.942 206.48C98.6285 203.153 91.5799 197.905 84.4945 190.159C74.351 179.07 64.2464 162.982 58.98 140.37H64.0333ZM164.801 71.5436C151.593 22.4133 115.395 6.40297 115.395 6.40297C117.384 1.90691 117.387 1.9082 117.39 1.90957L117.397 1.91279L117.415 1.92092L117.467 1.94401C117.507 1.96245 117.561 1.987 117.627 2.0178C117.759 2.07938 117.941 2.16594 118.17 2.27846C118.629 2.50346 119.274 2.83248 120.081 3.27342C121.693 4.15501 123.951 5.48584 126.638 7.32957C132.01 11.0152 139.12 16.7657 146.215 25.0932C155.464 35.9478 164.606 51.0893 169.886 71.5436H164.801ZM171.448 140.37C166.52 163.91 156.247 180.226 145.777 191.247C138.556 198.85 131.319 203.852 125.852 206.967C123.116 208.526 120.817 209.616 119.173 210.326C118.35 210.681 117.691 210.941 117.221 211.118C116.986 211.206 116.799 211.274 116.662 211.322C116.646 211.328 116.63 211.333 116.615 211.338C116.596 211.345 116.578 211.351 116.561 211.357L116.496 211.38L116.442 211.398L116.422 211.404L116.415 211.407C116.411 211.408 116.408 211.409 114.875 206.738C114.875 206.738 154.809 193.628 166.421 140.37H171.448ZM115.395 6.40297L117.384 1.90691L115.333 1L113.304 1.95363L115.395 6.40297ZM64.74 71.5436H59.6443C64.8832 51.8757 74.113 36.964 83.4874 26.0919C90.8008 17.6101 98.1709 11.6189 103.738 7.73446C106.523 5.79071 108.865 4.36919 110.534 3.4226C111.368 2.94914 112.035 2.59397 112.506 2.35121C112.742 2.22982 112.928 2.13648 113.063 2.07048C113.13 2.03747 113.184 2.01129 113.224 1.99185L113.274 1.96773L113.292 1.95943L113.299 1.95622C113.302 1.95487 113.304 1.95363 115.395 6.40297C115.395 6.40297 77.9787 23.9874 64.74 71.5436Z" fill="black"/>
<path fill-rule="evenodd" clip-rule="evenodd" d="M201.576 154.835C181.157 163.743 154.237 170.472 119.187 171.058C79.8926 171.715 49.7167 163.636 27.1499 152.964C28.4313 155.442 29.8121 157.859 31.287 160.209C53.7232 169.76 82.6789 176.585 119.269 175.974C151.553 175.434 177.188 169.765 197.348 161.898C198.849 159.608 200.26 157.252 201.576 154.835ZM200.411 56.2232C180.287 47.9675 153.792 42.0451 119.187 42.0451C79.6816 42.0451 49.7096 49.6899 27.4023 59.6907C28.6717 57.2685 30.0363 54.9053 31.4912 52.6063C53.6858 43.6346 82.4543 37.1289 119.187 37.1289C150.959 37.1289 176.154 42.0433 196.011 49.254C197.569 51.5108 199.037 53.8357 200.411 56.2232Z" fill="black"/>
<path fill-rule="evenodd" clip-rule="evenodd" d="M19.6686 66.624H210.171C221.034 66.624 229.84 75.43 229.84 86.2926V125.622C229.84 136.485 221.034 145.291 210.171 145.291H19.6686C8.80592 145.291 0 136.485 0 125.622V86.2926C0 75.43 8.80593 66.624 19.6686 66.624ZM19.6686 71.544C11.5232 71.544 4.92 78.1472 4.92 86.2926V125.622C4.92 133.768 11.5232 140.371 19.6686 140.371H210.171C218.317 140.371 224.92 133.768 224.92 125.622V86.2926C224.92 78.1472 218.317 71.544 210.171 71.544H19.6686Z" fill="black"/>
<path fill-rule="evenodd" clip-rule="evenodd" d="M141.877 118.25C141.863 118.128 141.788 118.053 141.651 118.025C141.357 118.659 141.357 119.261 141.651 119.831C141.857 122.012 142.76 123.856 144.36 125.362C145.291 125.903 146.269 126.317 147.295 126.604C147.295 127.281 147.295 127.958 147.295 128.636C142.705 128.636 138.114 128.636 133.523 128.636C133.523 127.883 133.523 127.131 133.523 126.378C136.048 126.075 137.741 124.72 138.603 122.314C138.862 121.652 139.05 120.975 139.168 120.282C139.462 119.563 139.462 118.81 139.168 118.025C138.937 118.105 138.786 118.255 138.716 118.476C137.432 119.798 135.852 120.589 133.975 120.847C128.217 121.863 124.191 119.718 121.896 114.412C121.096 112.126 121.171 109.868 122.122 107.639C122.704 106.249 123.456 104.969 124.38 103.801C129.399 97.3519 134.666 91.1056 140.183 85.0625C146.16 91.3388 151.804 97.8861 157.116 104.704C160.534 109.707 160.195 114.411 156.1 118.815C151.961 121.692 147.672 121.918 143.231 119.492C142.662 119.185 142.21 118.771 141.877 118.25Z" fill="black"/>
<path fill-rule="evenodd" clip-rule="evenodd" d="M90.9911 85.0723C91.292 85.0336 91.5576 85.1095 91.7877 85.2999C94.5925 88.8637 97.3995 92.4295 100.209 95.9972C103.247 99.4146 106.205 102.904 109.085 106.467C109.33 106.824 109.52 107.203 109.654 107.605C105.103 112.926 100.664 118.312 96.3398 123.765C94.6469 125.709 92.9018 127.605 91.1049 129.455C84.842 122.28 78.7347 114.958 72.783 107.491C78.9369 100.071 85.0061 92.598 90.9911 85.0723Z" fill="#E74344"/>
<path fill-rule="evenodd" clip-rule="evenodd" d="M179.459 86.3128C180.831 86.2794 182.196 86.3472 183.554 86.5164C186.695 87.1442 189.05 88.8414 190.618 91.6075C192.669 87.8366 195.877 86.0716 200.24 86.3128C204.657 86.2348 208.001 88.0676 210.273 91.8112C210.533 92.4188 210.772 93.0298 210.989 93.644C211.284 95.1214 211.42 96.6148 211.399 98.1242C211.271 99.2605 210.964 100.347 210.477 101.382C209.791 102.341 209.211 103.359 208.737 104.437C205.658 108.01 202.689 111.675 199.831 115.434C196.774 118.883 193.771 122.345 190.822 125.82C184.726 119.079 178.788 112.223 173.01 105.252C171.77 103.494 170.781 101.594 170.041 99.5497C170.06 99.0096 169.923 98.5345 169.632 98.1242C169.423 93.9238 170.992 90.5296 174.341 87.9419C175.924 86.9899 177.63 86.4467 179.459 86.3128Z" fill="#E74244"/>
<path fill-rule="evenodd" clip-rule="evenodd" d="M39.7817 118.831C40.0865 117.782 40.0865 116.698 39.7817 115.579C39.4521 115.696 39.2974 115.928 39.3172 116.276C36.3283 119.815 32.534 121.17 27.9349 120.341C22.1561 118.351 19.4073 114.286 19.6885 108.145C21.0897 102.217 24.8452 98.9647 30.9547 98.3891C29.2963 92.6389 30.9997 88.1866 36.0651 85.0323C41.9072 82.595 46.7465 83.8726 50.5833 88.8651C52.4447 91.9579 52.7931 95.2099 51.6286 98.6214C59.3379 99.4005 63.0158 103.659 62.6625 111.397C61.0522 117.801 56.9098 120.859 50.2349 120.573C46.9916 119.979 44.475 118.314 42.6854 115.579C42.2471 119.372 43.215 122.74 45.589 125.683C46.6785 126.317 47.8399 126.743 49.0734 126.961C49.0734 127.813 49.0734 128.664 49.0734 129.516C43.8856 129.516 38.6976 129.516 33.5099 129.516C33.5099 128.664 33.5099 127.813 33.5099 126.961C36.4602 126.451 38.3573 124.747 39.201 121.851C39.5063 120.862 39.6998 119.856 39.7817 118.831Z" fill="black"/>
<path d="M294.699 15.2799H304.316V58H294.699V39.8763H278.548V58H268.932V15.2799H278.548V31.6159H294.699V15.2799ZM329.059 51.5889C329.963 51.5889 330.826 51.5684 331.648 51.5273C332.47 51.4862 333.127 51.4245 333.62 51.3423V44.3764C333.251 44.2942 332.696 44.212 331.956 44.1298C331.216 44.0477 330.538 44.0066 329.922 44.0066C329.059 44.0066 328.237 44.0682 327.456 44.1915C326.716 44.2737 326.059 44.4586 325.483 44.7463C324.908 45.034 324.456 45.4244 324.127 45.9176C323.798 46.4107 323.634 47.0272 323.634 47.7669C323.634 49.2053 324.107 50.2122 325.052 50.7875C326.038 51.3218 327.374 51.5889 329.059 51.5889ZM328.319 24.7116C331.031 24.7116 333.292 25.0199 335.1 25.6363C336.908 26.2528 338.347 27.1363 339.415 28.287C340.525 29.4378 341.306 30.835 341.758 32.4789C342.21 34.1228 342.436 35.9516 342.436 37.9653V57.0753C341.121 57.363 339.292 57.6918 336.949 58.0616C334.607 58.4726 331.771 58.6781 328.442 58.6781C326.346 58.6781 324.435 58.4932 322.709 58.1233C321.024 57.7534 319.565 57.1575 318.332 56.3356C317.1 55.4725 316.154 54.3629 315.497 53.0067C314.839 51.6506 314.51 49.9861 314.51 48.0135C314.51 46.123 314.88 44.5203 315.62 43.2052C316.401 41.8901 317.428 40.8421 318.702 40.0613C319.976 39.2804 321.435 38.7256 323.079 38.3968C324.723 38.027 326.429 37.842 328.196 37.842C329.388 37.842 330.435 37.9037 331.34 38.027C332.285 38.1092 333.045 38.2325 333.62 38.3968V37.5338C333.62 35.9721 333.148 34.7187 332.203 33.7735C331.257 32.8282 329.614 32.3556 327.271 32.3556C325.709 32.3556 324.168 32.4789 322.648 32.7255C321.127 32.931 319.812 33.2392 318.702 33.6502L317.531 26.2528C318.065 26.0884 318.723 25.924 319.504 25.7596C320.326 25.5541 321.209 25.3897 322.154 25.2664C323.1 25.102 324.086 24.9788 325.113 24.8966C326.182 24.7733 327.25 24.7116 328.319 24.7116ZM361.856 58C359.76 53.8903 357.623 49.082 355.445 43.575C353.308 38.0681 351.274 32.0679 349.342 25.5747H359.082C359.493 27.1774 359.966 28.924 360.5 30.8145C361.076 32.6639 361.651 34.5543 362.226 36.4858C362.843 38.3763 363.439 40.2257 364.014 42.0339C364.63 43.8422 365.226 45.486 365.802 46.9655C366.336 45.486 366.911 43.8422 367.528 42.0339C368.144 40.2257 368.74 38.3763 369.315 36.4858C369.932 34.5543 370.507 32.6639 371.041 30.8145C371.617 28.924 372.11 27.1774 372.521 25.5747H382.014C380.083 32.0679 378.028 38.0681 375.85 43.575C373.713 49.082 371.596 53.8903 369.5 58H361.856ZM399.201 58H390.016V25.5747H399.201V58ZM402.592 13.9237L392.42 22.4924L388.228 18.7321L396.982 8.74554L402.592 13.9237ZM430.459 33.7118C429.637 33.5063 428.671 33.3009 427.562 33.0954C426.452 32.8488 425.26 32.7255 423.986 32.7255C423.411 32.7255 422.712 32.7871 421.891 32.9104C421.11 32.9926 420.514 33.0954 420.103 33.2187V58H410.918V27.3007C412.562 26.7254 414.493 26.1911 416.712 25.6979C418.973 25.1637 421.48 24.8966 424.233 24.8966C424.726 24.8966 425.322 24.9377 426.021 25.0199C426.719 25.0609 427.418 25.1431 428.117 25.2664C428.815 25.3486 429.514 25.4719 430.213 25.6363C430.911 25.7596 431.507 25.924 432 26.1295L430.459 33.7118ZM412.212 13.4306L415.603 9.36199L421.767 14.1087L427.932 9.36199L431.446 13.4306L421.767 21.876L412.212 13.4306ZM469.734 41.7257C469.734 44.2737 469.364 46.6162 468.624 48.7532C467.885 50.8492 466.816 52.6574 465.419 54.178C464.021 55.6575 462.336 56.8082 460.364 57.6301C458.432 58.4521 456.254 58.863 453.829 58.863C451.446 58.863 449.268 58.4521 447.295 57.6301C445.363 56.8082 443.699 55.6575 442.302 54.178C440.905 52.6574 439.815 50.8492 439.035 48.7532C438.254 46.6162 437.863 44.2737 437.863 41.7257C437.863 39.1777 438.254 36.8557 439.035 34.7598C439.857 32.6639 440.966 30.8761 442.363 29.3967C443.802 27.9172 445.487 26.7665 447.418 25.9445C449.391 25.1226 451.528 24.7116 453.829 24.7116C456.172 24.7116 458.309 25.1226 460.241 25.9445C462.213 26.7665 463.898 27.9172 465.295 29.3967C466.693 30.8761 467.782 32.6639 468.563 34.7598C469.343 36.8557 469.734 39.1777 469.734 41.7257ZM460.364 41.7257C460.364 38.89 459.788 36.6708 458.638 35.068C457.528 33.4241 455.925 32.6022 453.829 32.6022C451.733 32.6022 450.11 33.4241 448.959 35.068C447.809 36.6708 447.233 38.89 447.233 41.7257C447.233 44.5614 447.809 46.8217 448.959 48.5066C450.11 50.1505 451.733 50.9725 453.829 50.9725C455.925 50.9725 457.528 50.1505 458.638 48.5066C459.788 46.8217 460.364 44.5614 460.364 41.7257ZM487.904 58C485.808 53.8903 483.671 49.082 481.493 43.575C479.356 38.0681 477.321 32.0679 475.39 25.5747H485.13C485.541 27.1774 486.013 28.924 486.548 30.8145C487.123 32.6639 487.698 34.5543 488.274 36.4858C488.89 38.3763 489.486 40.2257 490.061 42.0339C490.678 43.8422 491.274 45.486 491.849 46.9655C492.383 45.486 492.959 43.8422 493.575 42.0339C494.192 40.2257 494.787 38.3763 495.363 36.4858C495.979 34.5543 496.555 32.6639 497.089 30.8145C497.664 28.924 498.157 27.1774 498.568 25.5747H508.062C506.13 32.0679 504.075 38.0681 501.897 43.575C499.76 49.082 497.644 53.8903 495.548 58H487.904ZM525.372 51.404C527.057 51.404 528.249 51.2396 528.947 50.9108C529.646 50.582 529.995 49.945 529.995 48.9998C529.995 48.2601 529.543 47.6231 528.639 47.0888C527.735 46.5135 526.358 45.8765 524.509 45.1778C523.071 44.6436 521.755 44.0887 520.564 43.5134C519.413 42.938 518.427 42.2599 517.605 41.4791C516.783 40.6572 516.146 39.6914 515.694 38.5818C515.242 37.4722 515.016 36.1365 515.016 34.5748C515.016 31.5337 516.146 29.1295 518.406 27.3624C520.666 25.5952 523.769 24.7116 527.714 24.7116C529.687 24.7116 531.578 24.8966 533.386 25.2664C535.194 25.5952 536.632 25.9651 537.701 26.376L536.098 33.5269C535.03 33.157 533.858 32.8282 532.584 32.5406C531.352 32.2529 529.954 32.109 528.393 32.109C525.516 32.109 524.077 32.9104 524.077 34.5132C524.077 34.8831 524.139 35.2118 524.262 35.4995C524.386 35.7872 524.632 36.0749 525.002 36.3626C525.372 36.6091 525.865 36.8968 526.482 37.2256C527.139 37.5133 527.961 37.842 528.947 38.2119C530.961 38.9517 532.626 39.6914 533.941 40.4311C535.256 41.1298 536.283 41.9106 537.023 42.7737C537.804 43.5956 538.338 44.5203 538.626 45.5477C538.954 46.5751 539.119 47.7669 539.119 49.1231C539.119 52.3286 537.906 54.7534 535.482 56.3972C533.098 58.0411 529.708 58.863 525.31 58.863C522.434 58.863 520.029 58.6165 518.098 58.1233C516.207 57.6301 514.892 57.2192 514.153 56.8904L515.694 49.4313C517.255 50.0478 518.858 50.5409 520.502 50.9108C522.146 51.2396 523.769 51.404 525.372 51.404ZM558.25 37.2872C559.155 36.3009 560.079 35.2735 561.025 34.205C562.011 33.1365 562.956 32.0885 563.86 31.0611C564.764 29.9926 565.607 28.9857 566.388 28.0405C567.21 27.0952 567.908 26.2733 568.484 25.5747H579.395C577.217 28.0816 575.08 30.4857 572.984 32.7871C570.929 35.0475 568.669 37.39 566.203 39.8147C567.436 40.9243 568.71 42.2599 570.025 43.8216C571.34 45.3422 572.614 46.9244 573.847 48.5683C575.08 50.2122 576.21 51.856 577.237 53.4999C578.265 55.1438 579.128 56.6438 579.826 58H569.285C568.627 56.9315 567.867 55.7602 567.004 54.4862C566.182 53.1711 565.299 51.8766 564.353 50.6026C563.408 49.2875 562.401 48.034 561.333 46.8422C560.305 45.6504 559.278 44.6436 558.25 43.8216V58H549.065V11.6429L558.25 10.1634V37.2872ZM599.635 51.5889C600.539 51.5889 601.402 51.5684 602.224 51.5273C603.046 51.4862 603.704 51.4245 604.197 51.3423V44.3764C603.827 44.2942 603.272 44.212 602.532 44.1298C601.793 44.0477 601.115 44.0066 600.498 44.0066C599.635 44.0066 598.813 44.0682 598.032 44.1915C597.293 44.2737 596.635 44.4586 596.06 44.7463C595.484 45.034 595.032 45.4244 594.703 45.9176C594.375 46.4107 594.21 47.0272 594.21 47.7669C594.21 49.2053 594.683 50.2122 595.628 50.7875C596.614 51.3218 597.95 51.5889 599.635 51.5889ZM598.895 24.7116C601.608 24.7116 603.868 25.0199 605.676 25.6363C607.485 26.2528 608.923 27.1363 609.991 28.287C611.101 29.4378 611.882 30.835 612.334 32.4789C612.786 34.1228 613.012 35.9516 613.012 37.9653V57.0753C611.697 57.363 609.868 57.6918 607.526 58.0616C605.183 58.4726 602.347 58.6781 599.019 58.6781C596.923 58.6781 595.012 58.4932 593.286 58.1233C591.601 57.7534 590.142 57.1575 588.909 56.3356C587.676 55.4725 586.731 54.3629 586.073 53.0067C585.416 51.6506 585.087 49.9861 585.087 48.0135C585.087 46.123 585.457 44.5203 586.196 43.2052C586.977 41.8901 588.005 40.8421 589.279 40.0613C590.553 39.2804 592.012 38.7256 593.656 38.3968C595.299 38.027 597.005 37.842 598.772 37.842C599.964 37.842 601.012 37.9037 601.916 38.027C602.861 38.1092 603.621 38.2325 604.197 38.3968V37.5338C604.197 35.9721 603.724 34.7187 602.779 33.7735C601.834 32.8282 600.19 32.3556 597.847 32.3556C596.286 32.3556 594.745 32.4789 593.224 32.7255C591.703 32.931 590.388 33.2392 589.279 33.6502L588.107 26.2528C588.642 26.0884 589.299 25.924 590.08 25.7596C590.902 25.5541 591.786 25.3897 592.731 25.2664C593.676 25.102 594.662 24.9788 595.69 24.8966C596.758 24.7733 597.827 24.7116 598.895 24.7116ZM607.402 13.9237L597.231 22.4924L593.039 18.7321L601.793 8.74554L607.402 13.9237ZM283.172 129.555C280.829 129.555 278.487 129.473 276.144 129.308C273.843 129.185 271.439 128.856 268.932 128.322V86.8964C270.904 86.5265 273.062 86.2594 275.404 86.095C277.747 85.8895 279.925 85.7868 281.939 85.7868C284.651 85.7868 287.137 85.9922 289.398 86.4032C291.699 86.7731 293.672 87.4306 295.316 88.3759C296.96 89.3211 298.234 90.5745 299.138 92.1362C300.083 93.6568 300.556 95.5472 300.556 97.8076C300.556 101.219 298.912 103.91 295.624 105.883C298.336 106.91 300.186 108.308 301.172 110.075C302.158 111.842 302.651 113.835 302.651 116.055C302.651 120.534 301.008 123.904 297.72 126.164C294.473 128.425 289.624 129.555 283.172 129.555ZM278.302 110.383V121.418C279 121.5 279.761 121.561 280.583 121.603C281.404 121.644 282.309 121.664 283.295 121.664C286.172 121.664 288.494 121.253 290.261 120.431C292.028 119.609 292.912 118.089 292.912 115.87C292.912 113.897 292.172 112.5 290.692 111.678C289.213 110.815 287.096 110.383 284.343 110.383H278.302ZM278.302 103.047H282.987C285.946 103.047 288.062 102.678 289.336 101.938C290.61 101.157 291.247 99.924 291.247 98.2391C291.247 96.513 290.59 95.3007 289.275 94.602C287.959 93.9034 286.028 93.554 283.48 93.554C282.658 93.554 281.774 93.5746 280.829 93.6157C279.884 93.6157 279.041 93.6568 278.302 93.739V103.047ZM332.357 104.712C331.535 104.506 330.569 104.301 329.459 104.095C328.35 103.849 327.158 103.725 325.884 103.725C325.309 103.725 324.61 103.787 323.788 103.91C323.007 103.993 322.411 104.095 322 104.219V129H312.815V98.3007C314.459 97.7254 316.391 97.1911 318.61 96.6979C320.87 96.1637 323.377 95.8966 326.131 95.8966C326.624 95.8966 327.22 95.9377 327.918 96.0199C328.617 96.0609 329.316 96.1431 330.014 96.2664C330.713 96.3486 331.412 96.4719 332.11 96.6363C332.809 96.7596 333.405 96.924 333.898 97.1295L332.357 104.712ZM351.089 129H341.904V96.5747H351.089V129ZM351.952 87.2046C351.952 88.8896 351.397 90.2252 350.288 91.2115C349.219 92.1568 347.945 92.6294 346.466 92.6294C344.986 92.6294 343.692 92.1568 342.582 91.2115C341.514 90.2252 340.979 88.8896 340.979 87.2046C340.979 85.5196 341.514 84.2045 342.582 83.2593C343.692 82.273 344.986 81.7798 346.466 81.7798C347.945 81.7798 349.219 82.273 350.288 83.2593C351.397 84.2045 351.952 85.5196 351.952 87.2046ZM370.635 112.541C370.635 115.376 371.272 117.657 372.546 119.383C373.82 121.109 375.71 121.972 378.217 121.972C379.039 121.972 379.799 121.952 380.498 121.911C381.196 121.829 381.772 121.746 382.224 121.664V104.958C381.648 104.589 380.888 104.28 379.943 104.034C379.039 103.787 378.114 103.664 377.169 103.664C372.813 103.664 370.635 106.623 370.635 112.541ZM391.409 127.952C390.587 128.199 389.642 128.445 388.573 128.692C387.505 128.897 386.375 129.082 385.183 129.247C384.032 129.411 382.84 129.534 381.607 129.616C380.416 129.74 379.265 129.801 378.155 129.801C375.484 129.801 373.1 129.411 371.004 128.63C368.908 127.849 367.141 126.74 365.703 125.301C364.265 123.822 363.155 122.055 362.374 120C361.634 117.904 361.264 115.561 361.264 112.972C361.264 110.342 361.593 107.979 362.251 105.883C362.908 103.746 363.854 101.938 365.086 100.458C366.319 98.9788 367.819 97.8487 369.587 97.0678C371.395 96.287 373.45 95.8966 375.751 95.8966C377.025 95.8966 378.155 96.0199 379.142 96.2664C380.169 96.513 381.196 96.8623 382.224 97.3144V82.6429L391.409 81.1634V127.952ZM427.441 102.739C426.702 103.561 425.695 104.671 424.421 106.068C423.188 107.465 421.852 109.006 420.414 110.691C418.976 112.376 417.517 114.144 416.037 115.993C414.599 117.842 413.284 119.63 412.092 121.356H427.75V129H400.934V123.575C401.797 122.096 402.825 120.514 404.016 118.829C405.249 117.102 406.523 115.376 407.838 113.65C409.195 111.924 410.53 110.26 411.845 108.657C413.16 107.013 414.373 105.534 415.482 104.219H401.674V96.5747H427.441V102.739ZM405.064 84.4306L408.455 80.362L414.619 85.1087L420.784 80.362L424.298 84.4306L414.619 92.876L405.064 84.4306ZM466.423 112.726C466.423 115.274 466.053 117.616 465.313 119.753C464.574 121.849 463.505 123.657 462.108 125.178C460.71 126.657 459.025 127.808 457.053 128.63C455.121 129.452 452.943 129.863 450.518 129.863C448.135 129.863 445.957 129.452 443.984 128.63C442.052 127.808 440.388 126.657 438.991 125.178C437.593 123.657 436.504 121.849 435.724 119.753C434.943 117.616 434.552 115.274 434.552 112.726C434.552 110.178 434.943 107.856 435.724 105.76C436.546 103.664 437.655 101.876 439.052 100.397C440.491 98.9172 442.176 97.7665 444.107 96.9445C446.08 96.1226 448.217 95.7116 450.518 95.7116C452.861 95.7116 454.998 96.1226 456.93 96.9445C458.902 97.7665 460.587 98.9172 461.984 100.397C463.382 101.876 464.471 103.664 465.252 105.76C466.032 107.856 466.423 110.178 466.423 112.726ZM457.053 112.726C457.053 109.89 456.477 107.671 455.327 106.068C454.217 104.424 452.614 103.602 450.518 103.602C448.422 103.602 446.799 104.424 445.648 106.068C444.498 107.671 443.922 109.89 443.922 112.726C443.922 115.561 444.498 117.822 445.648 119.507C446.799 121.151 448.422 121.972 450.518 121.972C452.614 121.972 454.217 121.151 455.327 119.507C456.477 117.822 457.053 115.561 457.053 112.726ZM484.593 129C482.497 124.89 480.36 120.082 478.182 114.575C476.045 109.068 474.01 103.068 472.079 96.5747H481.819C482.23 98.1774 482.702 99.924 483.237 101.814C483.812 103.664 484.387 105.554 484.963 107.486C485.579 109.376 486.175 111.226 486.75 113.034C487.367 114.842 487.963 116.486 488.538 117.966C489.072 116.486 489.648 114.842 490.264 113.034C490.881 111.226 491.476 109.376 492.052 107.486C492.668 105.554 493.244 103.664 493.778 101.814C494.353 99.924 494.846 98.1774 495.257 96.5747H504.751C502.819 103.068 500.764 109.068 498.586 114.575C496.449 120.082 494.333 124.89 492.237 129H484.593ZM524.541 122.589C525.445 122.589 526.308 122.568 527.13 122.527C527.952 122.486 528.61 122.425 529.103 122.342V115.376C528.733 115.294 528.178 115.212 527.439 115.13C526.699 115.048 526.021 115.007 525.404 115.007C524.541 115.007 523.719 115.068 522.938 115.191C522.199 115.274 521.541 115.459 520.966 115.746C520.39 116.034 519.938 116.424 519.61 116.918C519.281 117.411 519.116 118.027 519.116 118.767C519.116 120.205 519.589 121.212 520.534 121.788C521.521 122.322 522.856 122.589 524.541 122.589ZM523.801 95.7116C526.514 95.7116 528.774 96.0199 530.582 96.6363C532.391 97.2528 533.829 98.1363 534.898 99.287C536.007 100.438 536.788 101.835 537.24 103.479C537.692 105.123 537.918 106.952 537.918 108.965V128.075C536.603 128.363 534.774 128.692 532.432 129.062C530.089 129.473 527.254 129.678 523.925 129.678C521.829 129.678 519.918 129.493 518.192 129.123C516.507 128.753 515.048 128.158 513.815 127.336C512.582 126.473 511.637 125.363 510.979 124.007C510.322 122.651 509.993 120.986 509.993 119.013C509.993 117.123 510.363 115.52 511.103 114.205C511.883 112.89 512.911 111.842 514.185 111.061C515.459 110.28 516.918 109.726 518.562 109.397C520.206 109.027 521.911 108.842 523.678 108.842C524.87 108.842 525.918 108.904 526.822 109.027C527.767 109.109 528.528 109.232 529.103 109.397V108.534C529.103 106.972 528.63 105.719 527.685 104.773C526.74 103.828 525.096 103.356 522.754 103.356C521.192 103.356 519.651 103.479 518.13 103.725C516.61 103.931 515.294 104.239 514.185 104.65L513.014 97.2528C513.548 97.0884 514.205 96.924 514.986 96.7596C515.808 96.5541 516.692 96.3897 517.637 96.2664C518.582 96.102 519.569 95.9788 520.596 95.8966C521.664 95.7733 522.733 95.7116 523.801 95.7116ZM532.309 84.9237L522.137 93.4924L517.945 89.7321L526.699 79.7455L532.309 84.9237ZM297.535 200C297.083 198.521 296.569 197 295.994 195.438C295.46 193.877 294.925 192.315 294.391 190.753H277.747C277.213 192.315 276.658 193.877 276.082 195.438C275.548 197 275.055 198.521 274.603 200H264.616C266.219 195.397 267.74 191.144 269.178 187.239C270.617 183.335 272.014 179.657 273.37 176.205C274.767 172.753 276.124 169.486 277.439 166.403C278.795 163.28 280.192 160.239 281.631 157.28H290.816C292.213 160.239 293.59 163.28 294.946 166.403C296.302 169.486 297.658 172.753 299.014 176.205C300.412 179.657 301.83 183.335 303.268 187.239C304.706 191.144 306.227 195.397 307.83 200H297.535ZM286.007 166.958C285.802 167.575 285.494 168.417 285.083 169.486C284.672 170.554 284.199 171.787 283.665 173.184C283.131 174.582 282.535 176.123 281.877 177.808C281.261 179.493 280.624 181.26 279.966 183.109H292.11C291.453 181.26 290.816 179.493 290.199 177.808C289.583 176.123 288.987 174.582 288.411 173.184C287.877 171.787 287.405 170.554 286.994 169.486C286.583 168.417 286.254 167.575 286.007 166.958ZM325.01 179.287C325.915 178.301 326.839 177.273 327.784 176.205C328.771 175.136 329.716 174.088 330.62 173.061C331.524 171.993 332.367 170.986 333.148 170.04C333.969 169.095 334.668 168.273 335.243 167.575H346.155C343.977 170.082 341.839 172.486 339.744 174.787C337.689 177.047 335.428 179.39 332.963 181.815C334.196 182.924 335.47 184.26 336.785 185.822C338.1 187.342 339.374 188.924 340.607 190.568C341.839 192.212 342.97 193.856 343.997 195.5C345.024 197.144 345.888 198.644 346.586 200H336.045C335.387 198.931 334.627 197.76 333.764 196.486C332.942 195.171 332.058 193.877 331.113 192.603C330.168 191.287 329.161 190.034 328.093 188.842C327.065 187.65 326.038 186.644 325.01 185.822V200H315.825V153.643L325.01 152.163V179.287ZM366.395 193.589C367.299 193.589 368.162 193.568 368.984 193.527C369.806 193.486 370.464 193.425 370.957 193.342V186.376C370.587 186.294 370.032 186.212 369.292 186.13C368.553 186.048 367.874 186.007 367.258 186.007C366.395 186.007 365.573 186.068 364.792 186.191C364.052 186.274 363.395 186.459 362.82 186.746C362.244 187.034 361.792 187.424 361.463 187.918C361.135 188.411 360.97 189.027 360.97 189.767C360.97 191.205 361.443 192.212 362.388 192.788C363.374 193.322 364.71 193.589 366.395 193.589ZM365.655 166.712C368.368 166.712 370.628 167.02 372.436 167.636C374.244 168.253 375.683 169.136 376.751 170.287C377.861 171.438 378.642 172.835 379.094 174.479C379.546 176.123 379.772 177.952 379.772 179.965V199.075C378.457 199.363 376.628 199.692 374.286 200.062C371.943 200.473 369.107 200.678 365.779 200.678C363.683 200.678 361.772 200.493 360.046 200.123C358.361 199.753 356.902 199.158 355.669 198.336C354.436 197.473 353.491 196.363 352.833 195.007C352.175 193.651 351.847 191.986 351.847 190.013C351.847 188.123 352.217 186.52 352.956 185.205C353.737 183.89 354.765 182.842 356.039 182.061C357.313 181.28 358.772 180.726 360.415 180.397C362.059 180.027 363.765 179.842 365.532 179.842C366.724 179.842 367.772 179.904 368.676 180.027C369.621 180.109 370.381 180.232 370.957 180.397V179.534C370.957 177.972 370.484 176.719 369.539 175.773C368.594 174.828 366.95 174.356 364.607 174.356C363.046 174.356 361.504 174.479 359.984 174.725C358.463 174.931 357.148 175.239 356.039 175.65L354.867 168.253C355.402 168.088 356.059 167.924 356.84 167.76C357.662 167.554 358.545 167.39 359.491 167.266C360.436 167.102 361.422 166.979 362.45 166.897C363.518 166.773 364.587 166.712 365.655 166.712ZM398.989 183.541C398.989 186.376 399.626 188.657 400.9 190.383C402.174 192.109 404.064 192.972 406.571 192.972C407.393 192.972 408.153 192.952 408.852 192.911C409.551 192.829 410.126 192.746 410.578 192.664V175.958C410.003 175.589 409.243 175.28 408.297 175.034C407.393 174.787 406.468 174.664 405.523 174.664C401.167 174.664 398.989 177.623 398.989 183.541ZM419.763 198.952C418.941 199.199 417.996 199.445 416.928 199.692C415.859 199.897 414.729 200.082 413.537 200.247C412.386 200.411 411.195 200.534 409.962 200.616C408.77 200.74 407.619 200.801 406.51 200.801C403.838 200.801 401.455 200.411 399.359 199.63C397.263 198.849 395.496 197.74 394.057 196.301C392.619 194.822 391.509 193.055 390.728 191C389.989 188.904 389.619 186.561 389.619 183.972C389.619 181.342 389.948 178.979 390.605 176.883C391.263 174.746 392.208 172.938 393.441 171.458C394.674 169.979 396.174 168.849 397.941 168.068C399.749 167.287 401.804 166.897 404.105 166.897C405.379 166.897 406.51 167.02 407.496 167.266C408.523 167.513 409.551 167.862 410.578 168.314V153.643L419.763 152.163V198.952ZM429.905 184.034C429.905 181.157 430.336 178.65 431.199 176.513C432.104 174.335 433.275 172.527 434.713 171.088C436.152 169.65 437.795 168.561 439.645 167.821C441.535 167.081 443.467 166.712 445.439 166.712C450.042 166.712 453.679 168.129 456.351 170.965C459.022 173.76 460.358 177.89 460.358 183.356C460.358 183.89 460.337 184.486 460.296 185.144C460.255 185.76 460.214 186.315 460.173 186.808H439.337C439.542 188.698 440.426 190.198 441.987 191.308C443.549 192.418 445.645 192.972 448.275 192.972C449.96 192.972 451.604 192.829 453.207 192.541C454.851 192.212 456.186 191.822 457.214 191.37L458.447 198.829C457.953 199.075 457.296 199.322 456.474 199.568C455.652 199.815 454.727 200.021 453.7 200.185C452.714 200.39 451.645 200.555 450.494 200.678C449.344 200.801 448.193 200.863 447.042 200.863C444.124 200.863 441.576 200.432 439.398 199.568C437.261 198.705 435.473 197.534 434.035 196.055C432.638 194.534 431.59 192.746 430.891 190.692C430.234 188.637 429.905 186.418 429.905 184.034ZM451.481 180.52C451.44 179.739 451.296 178.979 451.049 178.239C450.844 177.5 450.494 176.842 450.001 176.267C449.549 175.691 448.953 175.219 448.213 174.849C447.515 174.479 446.631 174.294 445.563 174.294C444.535 174.294 443.652 174.479 442.912 174.849C442.172 175.178 441.556 175.63 441.063 176.205C440.569 176.78 440.179 177.458 439.891 178.239C439.645 178.979 439.46 179.739 439.337 180.52H451.481ZM488.343 182.801C488.343 179.842 487.953 177.746 487.172 176.513C486.432 175.28 485.138 174.664 483.289 174.664C482.713 174.664 482.117 174.705 481.501 174.787C480.884 174.828 480.289 174.89 479.713 174.972V200H470.528V168.684C471.309 168.479 472.213 168.273 473.24 168.068C474.309 167.821 475.419 167.616 476.569 167.451C477.761 167.246 478.973 167.102 480.206 167.02C481.439 166.897 482.652 166.835 483.843 166.835C486.186 166.835 488.076 167.143 489.515 167.76C490.994 168.335 492.207 169.034 493.152 169.856C494.467 168.91 495.967 168.171 497.652 167.636C499.378 167.102 500.96 166.835 502.399 166.835C504.988 166.835 507.104 167.205 508.748 167.945C510.433 168.643 511.769 169.65 512.755 170.965C513.741 172.28 514.419 173.842 514.789 175.65C515.159 177.458 515.344 179.472 515.344 181.691V200H506.159V182.801C506.159 179.842 505.769 177.746 504.988 176.513C504.248 175.28 502.953 174.664 501.104 174.664C500.611 174.664 499.912 174.787 499.008 175.034C498.145 175.28 497.426 175.589 496.851 175.958C497.138 176.904 497.323 177.91 497.405 178.979C497.488 180.006 497.529 181.116 497.529 182.308V200H488.343V182.801ZM535.952 200H526.767V167.575H535.952V200ZM536.815 158.205C536.815 159.89 536.261 161.225 535.151 162.212C534.082 163.157 532.808 163.629 531.329 163.629C529.849 163.629 528.555 163.157 527.445 162.212C526.377 161.225 525.843 159.89 525.843 158.205C525.843 156.52 526.377 155.205 527.445 154.259C528.555 153.273 529.849 152.78 531.329 152.78C532.808 152.78 534.082 153.273 535.151 154.259C536.261 155.205 536.815 156.52 536.815 158.205ZM546.128 184.034C546.128 181.157 546.559 178.65 547.422 176.513C548.326 174.335 549.498 172.527 550.936 171.088C552.374 169.65 554.018 168.561 555.868 167.821C557.758 167.081 559.69 166.712 561.662 166.712C566.265 166.712 569.902 168.129 572.573 170.965C575.245 173.76 576.58 177.89 576.58 183.356C576.58 183.89 576.56 184.486 576.519 185.144C576.478 185.76 576.436 186.315 576.395 186.808H555.559C555.765 188.698 556.648 190.198 558.21 191.308C559.772 192.418 561.868 192.972 564.498 192.972C566.183 192.972 567.827 192.829 569.429 192.541C571.073 192.212 572.409 191.822 573.436 191.37L574.669 198.829C574.176 199.075 573.519 199.322 572.697 199.568C571.875 199.815 570.95 200.021 569.923 200.185C568.936 200.39 567.868 200.555 566.717 200.678C565.566 200.801 564.416 200.863 563.265 200.863C560.347 200.863 557.799 200.432 555.621 199.568C553.484 198.705 551.696 197.534 550.258 196.055C548.861 194.534 547.813 192.746 547.114 190.692C546.456 188.637 546.128 186.418 546.128 184.034ZM567.703 180.52C567.662 179.739 567.518 178.979 567.272 178.239C567.066 177.5 566.717 176.842 566.224 176.267C565.772 175.691 565.176 175.219 564.436 174.849C563.738 174.479 562.854 174.294 561.785 174.294C560.758 174.294 559.874 174.479 559.135 174.849C558.395 175.178 557.779 175.63 557.285 176.205C556.792 176.78 556.402 177.458 556.114 178.239C555.868 178.979 555.683 179.739 555.559 180.52H567.703Z" fill="black"/>
</svg>
