<svg width="230" height="211" viewBox="0 0 230 211" fill="none" xmlns="http://www.w3.org/2000/svg">
<path fill-rule="evenodd" clip-rule="evenodd" d="M207.58 70.5439H210.171C218.317 70.5439 224.92 77.1471 224.92 85.2925V124.622C224.92 132.768 218.317 139.371 210.171 139.371H208.023C194.326 178.06 157.785 205.738 114.858 205.738C71.9321 205.738 35.3907 178.06 21.6944 139.371H19.6685C11.5231 139.371 4.91992 132.768 4.91992 124.622V85.2925C4.91992 77.1471 11.5231 70.5439 19.6685 70.5439H22.1371C36.1652 32.4965 72.3866 5.40234 114.858 5.40234C157.33 5.40234 193.552 32.4965 207.58 70.5439Z" fill="white"/>
<path fill-rule="evenodd" clip-rule="evenodd" d="M213.34 139.029C212.32 139.253 211.259 139.37 210.171 139.37H208.023C194.327 178.061 157.785 205.739 114.858 205.739C71.9316 205.739 35.3899 178.061 21.6939 139.37H19.6686C18.5335 139.37 17.4282 139.242 16.3667 138.999C30.1616 180.623 69.0113 210.659 114.858 210.659C160.695 210.659 199.537 180.637 213.34 139.029ZM212.893 70.7942C212.011 70.6297 211.101 70.5436 210.171 70.5436H207.579C193.551 32.4969 157.33 5.4034 114.858 5.4034C72.3871 5.4034 36.1661 32.4969 22.1377 70.5436H19.6686C18.6924 70.5436 17.7382 70.6385 16.815 70.8194C30.9882 29.8838 69.4986 0.483398 114.858 0.483398C160.209 0.483398 198.713 29.8717 212.893 70.7942Z" fill="black"/>
<path fill-rule="evenodd" clip-rule="evenodd" d="M114.875 205.738L113.092 210.32L114.734 210.959L116.408 210.409L114.875 205.738ZM64.0333 139.37C76.5116 190.808 114.875 205.738 114.875 205.738C113.092 210.32 113.089 210.318 113.085 210.317L113.078 210.314L113.06 210.307L113.008 210.287C112.968 210.27 112.914 210.249 112.849 210.222C112.717 210.168 112.537 210.092 112.31 209.993C111.857 209.795 111.219 209.505 110.422 209.113C108.83 208.332 106.6 207.144 103.942 205.48C98.6285 202.153 91.5799 196.905 84.4945 189.159C74.351 178.07 64.2464 161.982 58.98 139.37H64.0333ZM164.801 70.5436C151.593 21.4133 115.395 5.40297 115.395 5.40297C117.384 0.906914 117.387 0.908196 117.39 0.909571L117.397 0.912791L117.415 0.920925L117.467 0.944012C117.507 0.962451 117.561 0.987004 117.627 1.0178C117.759 1.07938 117.941 1.16594 118.17 1.27846C118.629 1.50346 119.274 1.83248 120.081 2.27342C121.693 3.15501 123.951 4.48584 126.638 6.32957C132.01 10.0152 139.12 15.7657 146.215 24.0932C155.464 34.9478 164.606 50.0893 169.886 70.5436H164.801ZM171.448 139.37C166.52 162.91 156.247 179.226 145.777 190.247C138.556 197.85 131.319 202.852 125.852 205.967C123.116 207.526 120.817 208.616 119.173 209.326C118.35 209.681 117.691 209.941 117.221 210.118C116.986 210.206 116.799 210.274 116.662 210.322C116.646 210.328 116.63 210.333 116.615 210.338C116.596 210.345 116.578 210.351 116.561 210.357L116.496 210.38L116.442 210.398L116.422 210.404L116.415 210.407C116.411 210.408 116.408 210.409 114.875 205.738C114.875 205.738 154.809 192.628 166.421 139.37H171.448ZM115.395 5.40297L117.384 0.906914L115.333 0L113.304 0.95363L115.395 5.40297ZM64.74 70.5436H59.6443C64.8832 50.8757 74.113 35.964 83.4874 25.0919C90.8008 16.6101 98.1709 10.6189 103.738 6.73446C106.523 4.79071 108.865 3.36919 110.534 2.4226C111.368 1.94914 112.035 1.59397 112.506 1.35121C112.742 1.22982 112.928 1.13648 113.063 1.07048C113.13 1.03747 113.184 1.01129 113.224 0.991851L113.274 0.967725L113.292 0.959429L113.299 0.956218C113.302 0.954873 113.304 0.95363 115.395 5.40297C115.395 5.40297 77.9787 22.9874 64.74 70.5436Z" fill="black"/>
<path fill-rule="evenodd" clip-rule="evenodd" d="M201.576 153.835C181.157 162.743 154.237 169.472 119.187 170.058C79.8926 170.715 49.7167 162.636 27.1499 151.964C28.4313 154.442 29.8121 156.859 31.287 159.209C53.7232 168.76 82.6789 175.585 119.269 174.974C151.553 174.434 177.188 168.765 197.348 160.898C198.849 158.608 200.26 156.252 201.576 153.835ZM200.411 55.2232C180.287 46.9675 153.792 41.0451 119.187 41.0451C79.6816 41.0451 49.7096 48.6899 27.4023 58.6907C28.6717 56.2685 30.0363 53.9053 31.4912 51.6063C53.6858 42.6346 82.4543 36.1289 119.187 36.1289C150.959 36.1289 176.154 41.0433 196.011 48.254C197.569 50.5108 199.037 52.8357 200.411 55.2232Z" fill="black"/>
<path fill-rule="evenodd" clip-rule="evenodd" d="M19.6686 65.624H210.171C221.034 65.624 229.84 74.43 229.84 85.2926V124.622C229.84 135.485 221.034 144.291 210.171 144.291H19.6686C8.80592 144.291 0 135.485 0 124.622V85.2926C0 74.43 8.80593 65.624 19.6686 65.624ZM19.6686 70.544C11.5232 70.544 4.92 77.1472 4.92 85.2926V124.622C4.92 132.768 11.5232 139.371 19.6686 139.371H210.171C218.317 139.371 224.92 132.768 224.92 124.622V85.2926C224.92 77.1472 218.317 70.544 210.171 70.544H19.6686Z" fill="black"/>
<path fill-rule="evenodd" clip-rule="evenodd" d="M141.877 117.25C141.863 117.128 141.788 117.053 141.651 117.025C141.357 117.659 141.357 118.261 141.651 118.831C141.857 121.012 142.76 122.856 144.36 124.362C145.291 124.903 146.269 125.317 147.295 125.604C147.295 126.281 147.295 126.958 147.295 127.636C142.705 127.636 138.114 127.636 133.523 127.636C133.523 126.883 133.523 126.131 133.523 125.378C136.048 125.075 137.741 123.72 138.603 121.314C138.862 120.652 139.05 119.975 139.168 119.282C139.462 118.563 139.462 117.81 139.168 117.025C138.937 117.105 138.786 117.255 138.716 117.476C137.432 118.798 135.852 119.589 133.975 119.847C128.217 120.863 124.191 118.718 121.896 113.412C121.096 111.126 121.171 108.868 122.122 106.639C122.704 105.249 123.456 103.969 124.38 102.801C129.399 96.3519 134.666 90.1056 140.183 84.0625C146.16 90.3388 151.804 96.8861 157.116 103.704C160.534 108.707 160.195 113.411 156.1 117.815C151.961 120.692 147.672 120.918 143.231 118.492C142.662 118.185 142.21 117.771 141.877 117.25Z" fill="black"/>
<path fill-rule="evenodd" clip-rule="evenodd" d="M90.9909 84.0723C91.2918 84.0336 91.5574 84.1095 91.7875 84.2999C94.5922 87.8637 97.3992 91.4295 100.209 94.9972C103.246 98.4146 106.205 101.904 109.085 105.467C109.33 105.824 109.52 106.203 109.654 106.605C105.102 111.926 100.664 117.312 96.3395 122.765C94.6466 124.709 92.9016 126.605 91.1047 128.455C84.8417 121.28 78.7345 113.958 72.7827 106.491C78.9366 99.0708 85.0058 91.598 90.9909 84.0723Z" fill="#E74344"/>
<path fill-rule="evenodd" clip-rule="evenodd" d="M179.459 85.3128C180.831 85.2794 182.196 85.3472 183.554 85.5164C186.695 86.1442 189.05 87.8414 190.618 90.6075C192.669 86.8366 195.877 85.0716 200.24 85.3128C204.657 85.2348 208.001 87.0676 210.273 90.8112C210.533 91.4188 210.772 92.0298 210.989 92.644C211.284 94.1214 211.42 95.6148 211.399 97.1242C211.271 98.2605 210.964 99.3468 210.477 100.382C209.791 101.341 209.211 102.359 208.737 103.437C205.658 107.01 202.689 110.675 199.831 114.434C196.774 117.883 193.771 121.345 190.822 124.82C184.726 118.079 178.788 111.223 173.01 104.252C171.77 102.494 170.781 100.594 170.041 98.5497C170.06 98.0096 169.923 97.5345 169.632 97.1242C169.423 92.9238 170.992 89.5296 174.341 86.9419C175.924 85.9899 177.63 85.4467 179.459 85.3128Z" fill="#E74244"/>
<path fill-rule="evenodd" clip-rule="evenodd" d="M39.7817 117.831C40.0865 116.782 40.0865 115.698 39.7817 114.579C39.4521 114.696 39.2974 114.928 39.3172 115.276C36.3283 118.815 32.534 120.17 27.9349 119.341C22.1561 117.351 19.4073 113.286 19.6885 107.145C21.0897 101.217 24.8452 97.9647 30.9547 97.3891C29.2963 91.6389 30.9997 87.1866 36.0651 84.0323C41.9072 81.595 46.7465 82.8726 50.5833 87.8651C52.4447 90.9579 52.7931 94.2099 51.6286 97.6214C59.3379 98.4005 63.0158 102.659 62.6625 110.397C61.0522 116.801 56.9098 119.859 50.2349 119.573C46.9916 118.979 44.475 117.314 42.6854 114.579C42.2471 118.372 43.215 121.74 45.589 124.683C46.6785 125.317 47.8399 125.743 49.0734 125.961C49.0734 126.813 49.0734 127.664 49.0734 128.516C43.8856 128.516 38.6976 128.516 33.5099 128.516C33.5099 127.664 33.5099 126.813 33.5099 125.961C36.4602 125.451 38.3573 123.747 39.201 120.851C39.5063 119.862 39.6998 118.856 39.7817 117.831Z" fill="black"/>
</svg>
